<svg width="162" height="40" viewBox="0 0 162 40" fill="none" xmlns="http://www.w3.org/2000/svg">
<path d="M22.3863 9.87646H17.1138L10.0816 27.1649H14.5933L19.75 13.8123L24.9083 27.1649H29.42L22.3863 9.87646Z" fill="white"/>
<path d="M17.845 39.8701L17.809 39.8655H17.8058H17.8027H17.7996L17.7964 39.8639C15.1461 39.5981 12.5975 38.7974 10.2963 37.5418C5.855 35.1196 2.34051 31.007 0.804784 25.7795C-0.730947 20.552 0.000129797 15.1962 2.42348 10.7631C3.67117 8.48164 5.36814 6.44412 7.433 4.7944L7.47371 4.75999C7.47527 4.75999 7.47684 4.75843 7.4784 4.75687C10.5342 2.25336 14.2773 0.586433 18.3318 0.0625879C18.3522 0.0594604 18.4868 0.0469507 18.5072 0.0438232L20.2073 4.22364C20.1822 4.2252 20.0445 4.23615 20.0194 4.23928C16.4032 4.46289 13.0484 5.8202 10.3495 7.98751C10.3072 8.02191 10.2649 8.05631 10.2227 8.09071C10.1554 8.14701 10.088 8.20174 10.0207 8.25803L10.0176 8.26272L10.0113 8.26585L10.0082 8.26898L10.0051 8.2721L10.0019 8.27523C9.98473 8.2893 9.96751 8.30338 9.94872 8.31745C8.41769 9.57781 7.15591 11.1149 6.21976 12.8272C4.32554 16.2908 3.7557 20.4754 4.95642 24.5613C6.15714 28.6489 8.89985 31.8608 12.3627 33.7513C14.199 34.7521 16.2372 35.3838 18.3553 35.5777C22.9688 35.9562 27.3177 34.4753 30.6443 31.7498C30.8071 31.6184 30.9668 31.4824 31.1233 31.3432L32.8266 35.5308C28.6953 38.6895 23.4181 40.369 17.845 39.8701Z" fill="white"/>
<path d="M61.113 6.91785H57.7973V26.2736H61.113V6.91785ZM65.7108 10.7896C66.91 10.7896 67.8023 9.92331 67.8023 8.70049C67.8023 7.50424 66.91 6.61292 65.7108 6.61292C64.5132 6.61292 63.5692 7.50424 63.5692 8.70049C63.5692 9.92331 64.4882 10.7896 65.7108 10.7896ZM67.3436 12.444H64.0029V26.2736H67.3436V12.444ZM77.2969 9.36194C77.909 9.36194 78.6479 9.54177 79.5152 9.92331L80.5609 7.32598C79.3367 6.68798 78.0874 6.38306 76.8382 6.38306C73.5491 6.38306 71.3309 8.31894 71.3309 11.8076V12.444H69.1376V15.2462H71.3309V26.2736H74.645V15.2462H78.9798V12.444H74.645V11.8842C74.645 10.2548 75.589 9.36194 77.2969 9.36194Z" fill="white"/>
<path d="M51.8532 19.3462C51.8532 20.544 51.4712 21.537 50.7057 22.3517C49.9418 23.1664 48.7551 23.5745 47.556 23.5745C46.3584 23.5745 45.3831 23.1726 44.6238 22.3517C43.8787 21.5432 43.503 20.544 43.503 19.3462C43.503 18.175 43.8787 17.1758 44.6238 16.3658C45.3831 15.5448 46.3584 15.1445 47.556 15.1445C48.7551 15.1445 49.9402 15.5511 50.7057 16.3658C51.4712 17.182 51.8532 18.175 51.8532 19.3462ZM51.7765 13.7278C50.5413 12.6629 49.0228 12.114 47.2632 12.114C45.3001 12.114 43.4263 12.802 42.1253 14.1515C40.826 15.501 40.1889 17.2321 40.1889 19.2946C40.1889 21.3587 40.826 23.1163 42.1253 24.5159C43.4263 25.917 45.2751 26.605 47.2632 26.605C49.0745 26.605 50.4177 26.0827 51.7765 24.9975V26.2735H54.9388V12.444H51.7765V13.7278Z" fill="white"/>
<path d="M96.5788 6.99768H98.8488V26.2768H96.5788V24.3675C95.3891 25.8608 93.7829 26.6083 91.7603 26.6083C89.7706 26.6083 88.1221 25.9202 86.8134 24.5457C85.5219 23.1524 84.8753 21.4558 84.8753 19.4511C84.8753 17.4824 85.5297 15.8014 86.8384 14.4097C88.1315 13.0164 89.7549 12.3206 91.7086 12.3206C93.714 12.3206 95.3374 13.1103 96.5788 14.6896V6.99768ZM96.7573 19.4511C96.7573 18.025 96.3158 16.8366 95.4313 15.8858C94.5484 14.9007 93.3915 14.4097 91.9638 14.4097C90.5361 14.4097 89.3808 14.9007 88.4963 15.8858C87.6134 16.8366 87.1703 18.025 87.1703 19.4511C87.1703 20.8772 87.6134 22.0829 88.4963 23.068C89.3964 24.0359 90.5533 24.5191 91.9638 24.5191C93.3915 24.5191 94.5484 24.0359 95.4313 23.068C96.3158 22.0829 96.7573 20.8772 96.7573 19.4511ZM114.741 19.2228C114.741 19.4089 114.716 19.8077 114.666 20.4191H103.727C104.17 23.1196 105.801 24.4691 108.624 24.4691C110.374 24.4691 111.98 23.9515 113.442 22.9148L114.411 24.6724C112.796 25.9468 110.85 26.5832 108.572 26.5832C106.175 26.5832 104.331 25.8358 103.04 24.3409C101.9 23.0336 101.33 21.3964 101.33 19.4261C101.33 17.3714 101.969 15.6732 103.243 14.3331C104.517 12.9914 106.167 12.3206 108.19 12.3206C110.111 12.3206 111.683 12.9398 112.907 14.1798C114.131 15.4199 114.741 17.1009 114.741 19.2228ZM108.19 14.3831C107.033 14.3831 106.048 14.7568 105.231 15.5043C104.416 16.2346 103.915 17.1931 103.727 18.3815H112.345C112.277 17.1759 111.852 16.2002 111.07 15.4527C110.305 14.7396 109.345 14.3831 108.19 14.3831ZM120.845 26.5832C118.55 26.5832 116.894 25.5809 115.873 23.5778L117.608 22.38C118.406 23.8405 119.511 24.5707 120.922 24.5707C121.653 24.5707 122.256 24.3753 122.732 23.9843C123.192 23.6122 123.42 23.1524 123.42 22.6098C123.42 21.8624 122.987 21.251 122.12 20.7756C121.78 20.5895 121.227 20.3346 120.463 20.0125C119.596 19.6388 119.026 19.3761 118.755 19.2228C117.395 18.4754 116.716 17.3886 116.716 15.9625C116.716 14.8757 117.105 13.9766 117.888 13.2635C118.686 12.5504 119.74 12.1939 121.049 12.1939C121.95 12.1939 122.774 12.38 123.522 12.7537C124.322 13.1447 124.917 13.6873 125.307 14.3831L123.777 15.7342C123.098 14.663 122.137 14.1282 120.897 14.1282C120.268 14.1282 119.767 14.2987 119.392 14.638C119.053 14.9601 118.882 15.3683 118.882 15.8608C118.882 16.6083 119.256 17.1603 120.005 17.5152L121.559 18.2299C122.357 18.5692 122.954 18.8397 123.344 19.0446C124.89 19.8593 125.664 21.0055 125.664 22.4816C125.664 23.62 125.214 24.5879 124.313 25.3854C123.413 26.1829 122.256 26.5832 120.845 26.5832ZM129.192 10.6646C128.699 10.6646 128.292 10.5035 127.968 10.1814C127.646 9.85928 127.484 9.46054 127.484 8.9836C127.484 8.50979 127.646 8.11887 127.968 7.81238C128.292 7.49025 128.699 7.32919 129.192 7.32919C129.651 7.32919 130.042 7.49025 130.365 7.81238C130.689 8.11887 130.85 8.50979 130.85 8.9836C130.85 9.46054 130.689 9.85928 130.365 10.1814C130.042 10.5035 129.651 10.6646 129.192 10.6646ZM130.29 26.2768H128.02V12.6521H130.29V26.2768ZM144.449 12.6521H146.718V24.8757C146.718 27.0664 146.056 28.8147 144.73 30.1219C143.438 31.4136 141.679 32.0578 139.452 32.0578C137.242 32.0578 135.254 31.4214 133.486 30.1485L134.582 28.3409C136.077 29.4433 137.701 29.9953 139.452 29.9953C140.982 29.9953 142.189 29.5543 143.072 28.6708C143.991 27.8045 144.449 26.6755 144.449 25.2838V24.1626C143.225 25.5887 141.611 26.3033 139.604 26.3033C137.633 26.3033 136.001 25.6325 134.709 24.2908C133.4 22.932 132.746 21.2682 132.746 19.2994C132.746 17.3292 133.418 15.6732 134.761 14.3331C136.104 12.9914 137.752 12.3206 139.706 12.3206C141.661 12.3206 143.242 13.0258 144.449 14.4347V12.6521ZM139.834 14.3831C138.424 14.3831 137.276 14.8507 136.392 15.7842C135.492 16.7349 135.041 17.9062 135.041 19.2994C135.041 20.7084 135.492 21.8874 136.392 22.8381C137.311 23.7732 138.457 24.2392 139.834 24.2392C141.228 24.2392 142.367 23.7732 143.25 22.8381C144.169 21.8874 144.628 20.7084 144.628 19.2994C144.628 17.889 144.169 16.7177 143.25 15.7842C142.367 14.8507 141.228 14.3831 139.834 14.3831ZM150.043 26.2768V12.6521H152.261V14.588C153.128 13.0586 154.572 12.2956 156.596 12.2956C158.125 12.2956 159.409 12.7881 160.445 13.7717C161.482 14.7568 162 16.1751 162 18.025V26.2768H159.732V18.688C159.732 17.3292 159.4 16.2674 158.738 15.5043C158.108 14.774 157.25 14.4097 156.162 14.4097C155.023 14.4097 154.097 14.8084 153.382 15.6059C152.668 16.3878 152.311 17.4136 152.311 18.688V26.2768H150.043Z" fill="white"/>
</svg>
