<?xml version="1.0" encoding="UTF-8"?>
<!DOCTYPE svg PUBLIC "-//W3C//DTD SVG 1.1//EN" "http://www.w3.org/Graphics/SVG/1.1/DTD/svg11.dtd">
<!-- Creator: CorelDRAW 2019 (64-Bit) -->
<svg xmlns="http://www.w3.org/2000/svg" xml:space="preserve" width="85.0695mm" height="17.0001mm" version="1.1" style="shape-rendering:geometricPrecision; text-rendering:geometricPrecision; image-rendering:optimizeQuality; fill-rule:evenodd; clip-rule:evenodd"
viewBox="0 0 819.55 163.78"
 xmlns:xlink="http://www.w3.org/1999/xlink">
 <defs>
  <style type="text/css">
   <![CDATA[
    .fil1 {fill:black;fill-rule:nonzero}
    .fil0 {fill:#00BFBF;fill-rule:nonzero}
   ]]>
  </style>
 </defs>
 <g id="Слой_x0020_1">
  <metadata id="CorelCorpID_0Corel-Layer"/>
  <g id="_2531782045024">
   <g>
    <polygon class="fil0" points="91.76,40.35 70.15,40.35 41.32,111.29 59.81,111.29 80.95,56.5 102.09,111.29 120.58,111.29 "/>
    <path class="fil0" d="M73.14 163.42l-0.15 -0.02 -0.01 -0 -0.01 -0 -0.01 -0 -0.01 -0c-10.87,-1.09 -21.31,-4.38 -30.74,-9.53 -18.2,-9.94 -32.61,-26.82 -38.9,-48.26 -6.3,-21.45 -3.3,-43.43 6.64,-61.62 5.12,-9.36 12.07,-17.72 20.53,-24.49l0.17 -0.14c0.01,-0 0.01,-0.01 0.02,-0.02 12.53,-10.27 27.87,-17.11 44.49,-19.26 0.08,-0.01 0.63,-0.06 0.72,-0.08l6.97 17.15c-0.1,0.01 -0.67,0.05 -0.77,0.06 -14.82,0.92 -28.57,6.49 -39.63,15.39 -0.17,0.14 -0.35,0.28 -0.52,0.42 -0.28,0.23 -0.55,0.46 -0.83,0.69l-0.02 0.02 -0.02 0.02 -0.01 0.01 -0.01 0.01 -0.01 0.01c-0.07,0.06 -0.14,0.12 -0.22,0.18 -6.28,5.17 -11.45,11.48 -15.29,18.51 -7.76,14.21 -10.1,31.38 -5.18,48.15 4.92,16.77 16.16,29.95 30.36,37.71 7.52,4.11 15.88,6.7 24.56,7.49 18.91,1.56 36.73,-4.53 50.37,-15.7 0.66,-0.54 1.32,-1.1 1.96,-1.67l6.98 17.18c-16.93,12.96 -38.56,19.85 -61.41,17.8z"/>
   </g>
   <g>
    <g>
     <path class="fil1" d="M250.48 28.21l-13.59 0 0 79.42 13.59 0 0 -79.42zm18.85 15.89c4.91,0 8.57,-3.55 8.57,-8.57 0,-4.91 -3.66,-8.57 -8.57,-8.57 -4.91,0 -8.78,3.66 -8.78,8.57 0,5.02 3.76,8.57 8.78,8.57zm6.69 6.79l-13.69 0 0 56.75 13.69 0 0 -56.75zm40.8 -12.65c2.51,0 5.54,0.73 9.09,2.3l4.28 -10.66c-5.02,-2.61 -10.14,-3.87 -15.26,-3.87 -13.48,0 -22.57,7.94 -22.57,22.26l0 2.61 -8.99 0 0 11.5 8.99 0 0 45.25 13.59 0 0 -45.25 17.77 0 0 -11.5 -17.77 0 0 -2.3c0,-6.69 3.87,-10.35 10.87,-10.35z"/>
     <path class="fil1" d="M212.53 79.21c0,4.91 -1.57,8.99 -4.7,12.33 -3.13,3.34 -8,5.02 -12.91,5.02 -4.91,0 -8.91,-1.65 -12.02,-5.02 -3.06,-3.32 -4.6,-7.42 -4.6,-12.33 0,-4.81 1.54,-8.91 4.6,-12.23 3.11,-3.37 7.11,-5.02 12.02,-5.02 4.91,0 9.77,1.67 12.91,5.02 3.13,3.34 4.7,7.42 4.7,12.23l0 0zm-0.31 -23.05c-5.07,-4.37 -11.29,-6.63 -18.5,-6.63 -8.05,0 -15.73,2.82 -21.06,8.36 -5.33,5.54 -7.94,12.64 -7.94,21.11 0,8.47 2.61,15.68 7.94,21.42 5.33,5.75 12.91,8.57 21.06,8.57 7.42,0 12.92,-2.14 18.5,-6.6l0 5.24 12.96 0 0 -56.75 -12.96 0 0 5.27z"/>
    </g>
    <path class="fil1" d="M395.85 59.99c-5.12,-6.37 -11.81,-9.61 -19.96,-9.61 -8.05,0 -14.74,2.72 -20.07,8.26 -5.33,5.43 -7.94,12.33 -7.94,20.69 0,8.47 2.61,15.47 7.94,21.21 5.33,5.64 12.02,8.47 20.07,8.47 8.26,0 14.84,-3.14 19.96,-9.41l0 8.05 8.99 0 0 -55.91 -8.99 0 0 8.26zm0.73 19.65c0,5.85 -1.88,10.76 -5.54,14.84 -3.66,3.97 -8.36,5.96 -14.21,5.96 -5.85,0 -10.55,-1.99 -14.21,-5.96 -3.55,-4.08 -5.33,-8.99 -5.33,-14.74 0,-5.85 1.78,-10.76 5.33,-14.74 3.66,-4.08 8.36,-6.06 14.21,-6.06 5.85,0 10.55,1.99 14.21,6.06 3.66,3.97 5.54,8.88 5.54,14.63zm126.53 -19.65c-5.12,-6.37 -11.81,-9.61 -19.96,-9.61 -8.05,0 -14.74,2.72 -20.07,8.26 -5.33,5.43 -7.94,12.33 -7.94,20.69 0,8.47 2.61,15.47 7.94,21.21 5.33,5.64 12.02,8.47 20.07,8.47 8.26,0 14.84,-3.14 19.96,-9.41l0 8.05 8.99 0 0 -55.91 -8.99 0 0 8.26zm0.73 19.65c0,5.85 -1.88,10.76 -5.54,14.84 -3.66,3.97 -8.36,5.96 -14.21,5.96 -5.85,0 -10.55,-1.99 -14.21,-5.96 -3.55,-4.08 -5.33,-8.99 -5.33,-14.74 0,-5.85 1.78,-10.76 5.33,-14.74 3.66,-4.08 8.36,-6.06 14.21,-6.06 5.85,0 10.55,1.99 14.21,6.06 3.66,3.97 5.54,8.88 5.54,14.63zm-79.46 29.26c10.87,0 20.9,-5.85 25.5,-14.32l-7.73 -4.49c-1.57,2.93 -4.08,5.33 -7.42,7.32 -3.34,1.99 -6.79,2.93 -10.35,2.93 -5.75,0 -10.55,-1.99 -14.42,-5.85 -3.76,-3.97 -5.64,-8.88 -5.64,-14.74 0,-5.96 1.99,-10.87 5.85,-14.84 3.87,-3.97 8.78,-5.96 14.74,-5.96 7.21,0 13.69,4.08 17.56,10.45l7.73 -4.49c-4.28,-8.78 -14.32,-14.53 -25.29,-14.53 -8.78,0 -15.99,2.72 -21.63,8.26 -5.54,5.54 -8.36,12.54 -8.36,21.11 0,8.47 2.72,15.47 8.26,21.01 5.54,5.43 12.54,8.15 21.21,8.15zm145.76 -48.8c-5.12,-6.48 -11.7,-9.72 -19.96,-9.72 -7.94,0 -14.63,2.82 -19.96,8.57 -5.33,5.64 -8.05,12.54 -8.05,20.69 0,8.26 2.61,15.15 7.94,20.9 5.33,5.64 12.12,8.47 20.27,8.47 8.26,0 14.84,-3.03 19.75,-9.2l0 7.84 9.3 0 0 -79.11 -9.3 0 0 31.56zm0.73 19.54c0,5.85 -1.78,10.76 -5.43,14.84 -3.66,3.97 -8.36,5.96 -14.21,5.96 -5.85,0 -10.55,-1.99 -14.21,-5.96 -3.66,-4.08 -5.43,-8.99 -5.43,-14.84 0,-5.75 1.78,-10.66 5.43,-14.63 3.66,-4.08 8.36,-6.06 14.21,-6.06 5.85,0 10.55,1.99 14.21,6.06 3.66,3.97 5.43,8.88 5.43,14.63zm73.72 -0.94c0,-8.67 -2.51,-15.57 -7.52,-20.69 -5.02,-5.12 -11.5,-7.63 -19.33,-7.63 -8.26,0 -15.05,2.72 -20.27,8.26 -5.23,5.54 -7.84,12.44 -7.84,20.9 0,14.63 8.67,29.37 29.68,29.37 9.3,0 18.5,-3.55 23.93,-7.84l-3.97 -7.21c-5.33,3.76 -13.06,6.37 -19.75,6.37 -12.12,0 -18.5,-6.9 -20.07,-16.62l44.83 0c0.21,-2.51 0.31,-4.18 0.31,-4.91zm-26.86 -19.86c9.3,0 16.51,6.37 17.03,16.41l-35.32 0c1.57,-9.72 8.67,-16.41 18.29,-16.41zm100.78 -8.57c-8.78,0 -16.62,4.18 -20.38,10.45 -3.24,-6.58 -10.14,-10.45 -17.77,-10.45 -7.42,0 -13.48,3.76 -16.83,9.72l0 -8.26 -9.09 0 0 55.91 9.3 0 0 -31.35c0,-10.45 6.27,-17.35 15.36,-17.35 8.67,0 13.9,6.37 13.9,17.14l0 31.56 9.3 0 0 -31.56c0,-10.14 6.17,-17.14 15.26,-17.14 8.47,0 13.79,6.06 13.79,16.93l0 31.77 9.3 0 0 -33.13c0,-7.42 -1.99,-13.27 -5.96,-17.66 -3.97,-4.39 -9.41,-6.58 -16.2,-6.58zm55.32 44.31l-17.77 -42.85 -10.76 0 24.25 55.6 -2.2 5.43c-2.72,6.58 -6.37,9.93 -11.08,9.93 -1.88,0 -4.18,-0.52 -6.79,-1.67l-1.05 8.26c2.19,1.36 5.02,2.09 8.67,2.09 8.36,0 14.21,-4.7 18.81,-16.93l23.62 -62.7 -10.35 0 -15.36 42.85z"/>
   </g>
  </g>
 </g>
</svg>
