<?xml version="1.0" encoding="UTF-8"?>
<!DOCTYPE svg PUBLIC "-//W3C//DTD SVG 1.1//EN" "http://www.w3.org/Graphics/SVG/1.1/DTD/svg11.dtd">
<!-- Creator: CorelDRAW 2019 (64-Bit) -->
<svg xmlns="http://www.w3.org/2000/svg" xml:space="preserve" width="45.3268mm" height="16.737mm" version="1.1" style="shape-rendering:geometricPrecision; text-rendering:geometricPrecision; image-rendering:optimizeQuality; fill-rule:evenodd; clip-rule:evenodd"
viewBox="0 0 2306.63 851.73"
 xmlns:xlink="http://www.w3.org/1999/xlink">
 <defs>
  <style type="text/css">
   <![CDATA[
    .fil3 {fill:black}
    .fil1 {fill:#39B980}
    .fil2 {fill:black;fill-rule:nonzero}
    .fil0 {fill:#39B980;fill-rule:nonzero}
   ]]>
  </style>
 </defs>
 <g id="Слой_x0020_1">
  <metadata id="CorelCorpID_0Corel-Layer"/>
  <g id="_1975070541216">
   <polygon class="fil0" points="477.19,209.84 364.81,209.84 214.9,578.76 311.06,578.76 421,293.82 530.93,578.76 627.09,578.76 "/>
   <path class="fil1" d="M380.36 849.87l-0.77 -0.08 -0.06 -0.01 -0.06 -0.01 -0.06 -0.01 -0.06 -0.01c-56.51,-5.68 -110.85,-22.77 -159.89,-49.56 -94.66,-51.71 -169.58,-139.47 -202.32,-251 -32.74,-111.56 -17.15,-225.87 34.52,-320.46 26.6,-48.7 62.74,-92.18 106.76,-127.38l0.87 -0.72c0.04,-0.03 0.07,-0.05 0.1,-0.08 65.17,-53.42 144.95,-89 231.37,-100.18 0.44,-0.06 3.29,-0.34 3.74,-0.39l36.24 89.19c-0.54,0.03 -3.48,0.28 -4,0.32 -77.08,4.79 -148.59,33.76 -206.12,80.01 -0.9,0.73 -1.81,1.46 -2.71,2.2 -1.44,1.18 -2.88,2.38 -4.3,3.58l-0.09 0.08 -0.11 0.08 -0.07 0.06 -0.07 0.06 -0.08 0.07c-0.37,0.31 -0.75,0.62 -1.12,0.92 -32.64,26.89 -59.53,59.69 -79.5,96.24 -40.35,73.89 -52.52,163.2 -26.93,250.4 25.6,87.22 84.06,155.78 157.89,196.1 39.12,21.37 82.57,34.83 127.74,38.98 98.34,8.09 191.04,-23.54 261.95,-81.67 3.45,-2.83 6.85,-5.72 10.19,-8.67l36.3 89.34c-88.05,67.42 -200.55,103.24 -319.35,92.59z"/>
  </g>
  <g id="_1975070543552">
   <path class="fil2" d="M1105.29 411.92c0,25.54 -8.15,46.74 -24.46,64.13 -16.3,17.39 -41.58,26.09 -67.12,26.09 -25.55,0 -46.34,-8.56 -62.5,-26.09 -15.91,-17.25 -23.91,-38.59 -23.91,-64.13 0,-25 8,-46.33 23.91,-63.59 16.16,-17.53 36.96,-26.09 62.5,-26.09 25.55,0 50.82,8.7 67.12,26.09 16.31,17.39 24.46,38.59 24.46,63.59l0 0zm-1.63 -119.88c-26.35,-22.73 -58.7,-34.47 -96.2,-34.47 -41.85,0 -81.8,14.68 -109.52,43.48 -27.71,28.8 -41.31,65.76 -41.31,109.78 0,44.02 13.59,81.53 41.31,111.42 27.71,29.89 67.12,44.57 109.52,44.57 38.58,0 67.21,-11.15 96.2,-34.31l0 27.25 67.39 0 0 -295.12 -67.39 0 0 27.4z"/>
   <path class="fil3" d="M1234.31 564.09c35.33,0 62.5,-14.68 81.52,-44.02 7.06,-11.41 14.13,-28.26 18.48,-39.68 4.89,-12.5 9.79,-36.96 11.95,-47.83 1.63,-5.43 3.26,-14.13 4.9,-26.63l3.26 -25c0.54,-4.35 2.17,-13.59 3.8,-27.72l3.26 -25.54 65.76 0 0 232.07 70.65 0 0 -295.12 -197.83 0 -2.17 21.74c-5.98,56.52 -11.96,100 -17.39,130.98 -5.43,30.43 -13.59,53.8 -25,69.57 -10.87,14.68 -25.54,22.28 -43.48,22.28l3.81 52.72c8.15,1.63 14.13,2.18 18.48,2.18z"/>
   <path class="fil2" d="M2130.54 318.98c67.94,0.54 107.61,35.87 107.61,92.94 0,58.15 -40.76,93.48 -107.61,94.02l0 -186.96zm-174.46 92.94c0,-57.07 39.67,-92.39 107.61,-92.94l0 186.96c-66.85,-1.63 -107.61,-35.87 -107.61,-94.02zm350.55 0.54c0,-46.74 -16.3,-83.69 -48.37,-111.41 -32.07,-27.72 -75,-42.39 -127.72,-44.02l0 -79.35 -66.85 0 0 79.35c-53.26,1.63 -96.2,16.3 -128.27,44.02 -32.07,27.72 -47.83,64.67 -47.83,110.87 0,46.2 15.76,83.15 47.83,110.33 32.07,27.17 74.46,41.85 128.27,44.02l0 79.35 66.85 0 0 -79.35c53.8,-1.63 96.2,-16.3 128.26,-43.48 32.07,-27.17 47.83,-64.13 47.83,-110.33z"/>
   <polygon class="fil2" points="1603.96,559.74 1769.72,375.5 1769.72,559.74 1838.21,559.74 1838.21,264.63 1793.64,264.63 1627.88,451.04 1627.88,264.63 1558.85,264.63 1558.85,559.74 "/>
  </g>
 </g>
</svg>
