<?xml version="1.0" encoding="UTF-8"?>
<!DOCTYPE svg PUBLIC "-//W3C//DTD SVG 1.1//EN" "http://www.w3.org/Graphics/SVG/1.1/DTD/svg11.dtd">
<!-- Creator: CorelDRAW 2019 (64-Bit) -->
<svg xmlns="http://www.w3.org/2000/svg" xml:space="preserve" width="77.7068mm" height="17mm" version="1.1" style="shape-rendering:geometricPrecision; text-rendering:geometricPrecision; image-rendering:optimizeQuality; fill-rule:evenodd; clip-rule:evenodd"
viewBox="0 0 599.84 131.23"
 xmlns:xlink="http://www.w3.org/1999/xlink">
 <defs>
  <style type="text/css">
   <![CDATA[
    .fil1 {fill:black;fill-rule:nonzero}
    .fil2 {fill:black;fill-rule:nonzero}
    .fil0 {fill:#39B980;fill-rule:nonzero}
   ]]>
  </style>
 </defs>
 <g id="Слой_x0020_1">
  <metadata id="CorelCorpID_0Corel-Layer"/>
  <g id="_2529813890912">
   <polygon class="fil0" points="73.52,32.33 56.21,32.33 33.11,89.17 47.93,89.17 64.86,45.27 81.8,89.17 96.62,89.17 "/>
   <path class="fil0" d="M58.6 130.94l-0.12 -0.01 -0.01 -0 -0.01 -0 -0.01 -0 -0.01 -0c-8.71,-0.88 -17.08,-3.51 -24.63,-7.64 -14.58,-7.97 -26.13,-21.49 -31.17,-38.67 -5.04,-17.19 -2.64,-34.8 5.32,-49.37 4.1,-7.5 9.67,-14.2 16.45,-19.62l0.13 -0.11c0.01,-0 0.01,-0.01 0.01,-0.01 10.04,-8.23 22.33,-13.71 35.65,-15.44 0.07,-0.01 0.51,-0.05 0.58,-0.06l5.58 13.74c-0.08,0 -0.54,0.04 -0.62,0.05 -11.87,0.74 -22.89,5.2 -31.76,12.33 -0.14,0.11 -0.28,0.23 -0.42,0.34 -0.22,0.18 -0.44,0.37 -0.66,0.55l-0.01 0.01 -0.02 0.01 -0.01 0.01 -0.01 0.01 -0.01 0.01c-0.06,0.05 -0.12,0.1 -0.17,0.14 -5.03,4.14 -9.17,9.2 -12.25,14.83 -6.22,11.38 -8.09,25.14 -4.15,38.58 3.94,13.44 12.95,24 24.33,30.21 6.03,3.29 12.72,5.37 19.68,6 15.15,1.25 29.43,-3.63 40.36,-12.58 0.53,-0.44 1.06,-0.88 1.57,-1.34l5.59 13.77c-13.57,10.39 -30.9,15.91 -49.2,14.27z"/>
  </g>
  <g id="_2529813903488">
   <path class="fil1" d="M200.7 22.6l-10.89 0 0 63.64 10.89 0 0 -63.64zm15.1 12.73c3.94,0 6.87,-2.85 6.87,-6.87 0,-3.94 -2.93,-6.87 -6.87,-6.87 -3.94,0 -7.03,2.93 -7.03,6.87 0,4.02 3.01,6.87 7.03,6.87zm5.36 5.44l-10.97 0 0 45.47 10.97 0 0 -45.47zm32.69 -10.13c2.01,0 4.44,0.59 7.28,1.84l3.43 -8.54c-4.02,-2.09 -8.12,-3.1 -12.23,-3.1 -10.8,0 -18.09,6.36 -18.09,17.84l0 2.09 -7.2 0 0 9.21 7.2 0 0 36.26 10.89 0 0 -36.26 14.24 0 0 -9.21 -14.24 0 0 -1.84c0,-5.36 3.1,-8.29 8.71,-8.29z"/>
   <path class="fil1" d="M170.3 63.46c0,3.94 -1.26,7.2 -3.77,9.88 -2.51,2.68 -6.41,4.02 -10.34,4.02 -3.94,0 -7.14,-1.32 -9.63,-4.02 -2.45,-2.66 -3.68,-5.95 -3.68,-9.88 0,-3.85 1.23,-7.14 3.68,-9.8 2.49,-2.7 5.69,-4.02 9.63,-4.02 3.94,0 7.83,1.34 10.34,4.02 2.51,2.68 3.77,5.95 3.77,9.8l0 0zm-0.25 -18.47c-4.06,-3.5 -9.04,-5.31 -14.82,-5.31 -6.45,0 -12.6,2.26 -16.87,6.7 -4.27,4.44 -6.36,10.13 -6.36,16.92 0,6.78 2.09,12.56 6.36,17.17 4.27,4.6 10.34,6.87 16.87,6.87 5.94,0 10.36,-1.72 14.82,-5.29l0 4.2 10.38 0 0 -45.47 -10.38 0 0 4.22z"/>
  </g>
  <path class="fil2" d="M305.12 40.36c6.36,0 11.67,2.29 15.91,6.87 4.3,4.63 6.45,10.19 6.45,16.66 0,6.48 -2.15,12.03 -6.45,16.66 -4.24,4.52 -9.57,6.78 -15.99,6.78 -6.64,0 -11.97,-2.57 -15.99,-7.7l0 6.61 -7.45 0 0 -63.39 7.45 0 0 25.46c4.13,-5.3 9.49,-7.95 16.08,-7.95zm-0.84 39.94c4.63,0 8.37,-1.59 11.22,-4.77 2.9,-3.13 4.35,-7.03 4.35,-11.72 0,-4.69 -1.45,-8.57 -4.35,-11.64 -2.85,-3.18 -6.59,-4.77 -11.22,-4.77 -4.69,0 -8.46,1.59 -11.3,4.77 -2.85,3.18 -4.27,7.06 -4.27,11.64 0,4.63 1.42,8.54 4.27,11.72 2.85,3.18 6.62,4.77 11.3,4.77zm49.69 7.03c-5.86,0 -10.49,-1.7 -13.9,-5.11 -3.41,-3.4 -5.11,-8.04 -5.11,-13.9l0 -26.88 7.45 0 0 26.63c0,3.85 1.01,6.87 3.01,9.04 2.07,2.18 4.91,3.27 8.54,3.27 3.63,0 6.48,-1.09 8.54,-3.27 2.01,-2.18 3.01,-5.19 3.01,-9.04l0 -26.63 7.45 0 0 26.88c0,5.86 -1.7,10.49 -5.11,13.9 -3.35,3.41 -7.98,5.11 -13.9,5.11zm41.48 -0.08c-7.54,0 -12.98,-3.29 -16.33,-9.88l5.69 -3.94c2.62,4.8 6.25,7.2 10.88,7.2 2.4,0 4.38,-0.64 5.95,-1.93 1.51,-1.23 2.26,-2.73 2.26,-4.52 0,-2.46 -1.42,-4.47 -4.27,-6.03 -1.12,-0.61 -2.93,-1.45 -5.44,-2.51 -2.85,-1.23 -4.72,-2.09 -5.61,-2.6 -4.47,-2.46 -6.7,-6.03 -6.7,-10.72 0,-3.57 1.28,-6.53 3.85,-8.88 2.62,-2.34 6.08,-3.52 10.38,-3.52 2.96,0 5.67,0.61 8.12,1.84 2.62,1.28 4.58,3.07 5.86,5.36l-5.02 4.44c-2.23,-3.52 -5.39,-5.28 -9.46,-5.28 -2.07,0 -3.71,0.56 -4.94,1.67 -1.12,1.06 -1.68,2.4 -1.68,4.02 0,2.46 1.23,4.27 3.68,5.44l5.11 2.34c2.62,1.12 4.58,2.01 5.86,2.68 5.08,2.68 7.62,6.45 7.62,11.3 0,3.74 -1.48,6.92 -4.44,9.55 -2.96,2.62 -6.75,3.94 -11.39,3.94zm27.41 -52.33c-1.62,0 -2.96,-0.53 -4.02,-1.59 -1.06,-1.06 -1.59,-2.37 -1.59,-3.94 0,-1.56 0.53,-2.85 1.59,-3.85 1.06,-1.06 2.4,-1.59 4.02,-1.59 1.51,0 2.79,0.53 3.85,1.59 1.06,1.01 1.59,2.29 1.59,3.85 0,1.56 -0.53,2.87 -1.59,3.94 -1.06,1.06 -2.35,1.59 -3.85,1.59zm3.6 51.33l-7.45 0 0 -44.8 7.45 0 0 44.8zm10.92 0l0 -44.8 7.28 0 0 6.36c2.85,-5.02 7.59,-7.54 14.24,-7.54 5.02,0 9.24,1.62 12.64,4.86 3.41,3.24 5.11,7.9 5.11,13.98l0 27.13 -7.45 0 0 -24.95c0,-4.47 -1.09,-7.95 -3.27,-10.47 -2.07,-2.4 -4.88,-3.6 -8.46,-3.6 -3.74,0 -6.78,1.31 -9.13,3.94 -2.34,2.57 -3.52,5.95 -3.52,10.13l0 24.95 -7.45 0zm90.88 -23.19c0,0.61 -0.08,1.93 -0.25,3.94l-35.92 0c1.45,8.88 6.81,13.31 16.08,13.31 5.75,0 11.02,-1.7 15.83,-5.11l3.18 5.78c-5.3,4.19 -11.7,6.28 -19.18,6.28 -7.87,0 -13.93,-2.46 -18.17,-7.37 -3.74,-4.3 -5.61,-9.69 -5.61,-16.16 0,-6.75 2.09,-12.34 6.28,-16.75 4.19,-4.41 9.6,-6.62 16.24,-6.62 6.31,0 11.47,2.04 15.49,6.11 4.02,4.08 6.03,9.6 6.03,16.58zm-21.52 -15.91c-3.8,0 -7.03,1.23 -9.71,3.68 -2.68,2.4 -4.33,5.55 -4.94,9.46l28.3 0c-0.22,-3.96 -1.62,-7.17 -4.19,-9.63 -2.51,-2.35 -5.67,-3.52 -9.46,-3.52zm41.56 40.11c-7.54,0 -12.98,-3.29 -16.33,-9.88l5.69 -3.94c2.62,4.8 6.25,7.2 10.88,7.2 2.4,0 4.38,-0.64 5.95,-1.93 1.51,-1.23 2.26,-2.73 2.26,-4.52 0,-2.46 -1.42,-4.47 -4.27,-6.03 -1.12,-0.61 -2.93,-1.45 -5.44,-2.51 -2.85,-1.23 -4.72,-2.09 -5.61,-2.6 -4.47,-2.46 -6.7,-6.03 -6.7,-10.72 0,-3.57 1.28,-6.53 3.85,-8.88 2.62,-2.34 6.08,-3.52 10.38,-3.52 2.96,0 5.67,0.61 8.12,1.84 2.62,1.28 4.58,3.07 5.86,5.36l-5.02 4.44c-2.23,-3.52 -5.39,-5.28 -9.46,-5.28 -2.07,0 -3.71,0.56 -4.94,1.67 -1.12,1.06 -1.68,2.4 -1.68,4.02 0,2.46 1.23,4.27 3.68,5.44l5.11 2.34c2.62,1.12 4.58,2.01 5.86,2.68 5.08,2.68 7.62,6.45 7.62,11.3 0,3.74 -1.48,6.92 -4.44,9.55 -2.96,2.62 -6.75,3.94 -11.39,3.94zm35.7 0c-7.54,0 -12.98,-3.29 -16.33,-9.88l5.69 -3.94c2.62,4.8 6.25,7.2 10.88,7.2 2.4,0 4.38,-0.64 5.95,-1.93 1.51,-1.23 2.26,-2.73 2.26,-4.52 0,-2.46 -1.42,-4.47 -4.27,-6.03 -1.12,-0.61 -2.93,-1.45 -5.44,-2.51 -2.85,-1.23 -4.72,-2.09 -5.61,-2.6 -4.47,-2.46 -6.7,-6.03 -6.7,-10.72 0,-3.57 1.28,-6.53 3.85,-8.88 2.62,-2.34 6.08,-3.52 10.38,-3.52 2.96,0 5.67,0.61 8.12,1.84 2.62,1.28 4.58,3.07 5.86,5.36l-5.02 4.44c-2.23,-3.52 -5.39,-5.28 -9.46,-5.28 -2.07,0 -3.71,0.56 -4.94,1.67 -1.12,1.06 -1.68,2.4 -1.68,4.02 0,2.46 1.23,4.27 3.68,5.44l5.11 2.34c2.62,1.12 4.58,2.01 5.86,2.68 5.08,2.68 7.62,6.45 7.62,11.3 0,3.74 -1.48,6.92 -4.44,9.55 -2.96,2.62 -6.75,3.94 -11.39,3.94z"/>
 </g>
</svg>
