<?xml version="1.0" encoding="UTF-8"?>
<!DOCTYPE svg PUBLIC "-//W3C//DTD SVG 1.1//EN" "http://www.w3.org/Graphics/SVG/1.1/DTD/svg11.dtd">
<!-- Creator: CorelDRAW 2019 (64-Bit) -->
<svg xmlns="http://www.w3.org/2000/svg" xml:space="preserve" width="60.684mm" height="16.737mm" version="1.1" style="shape-rendering:geometricPrecision; text-rendering:geometricPrecision; image-rendering:optimizeQuality; fill-rule:evenodd; clip-rule:evenodd"
viewBox="0 0 1760.43 485.54"
 xmlns:xlink="http://www.w3.org/1999/xlink">
 <defs>
  <style type="text/css">
   <![CDATA[
    .fil1 {fill:black;fill-rule:nonzero}
    .fil0 {fill:#37A134;fill-rule:nonzero}
   ]]>
  </style>
 </defs>
 <g id="Слой_x0020_1">
  <metadata id="CorelCorpID_0Corel-Layer"/>
  <g id="_1975062093600">
   <g>
    <g>
     <polygon class="fil0" points="272.03,119.62 207.96,119.62 122.51,329.93 177.33,329.93 240,167.5 302.67,329.93 357.49,329.93 "/>
     <path class="fil0" d="M216.83 484.48l-0.44 -0.04 -0.03 -0 -0.03 -0.01 -0.03 -0 -0.03 -0c-32.21,-3.24 -63.19,-12.98 -91.15,-28.25 -53.96,-29.47 -96.67,-79.5 -115.33,-143.09 -18.66,-63.6 -9.78,-128.76 19.68,-182.68 15.16,-27.76 35.77,-52.55 60.86,-72.61l0.49 -0.41c0.02,-0.01 0.04,-0.03 0.06,-0.05 37.15,-30.45 82.63,-50.74 131.89,-57.11 0.25,-0.03 1.87,-0.19 2.13,-0.22l20.66 50.85c-0.3,0.02 -1.98,0.16 -2.28,0.18 -43.94,2.73 -84.71,19.25 -117.5,45.61 -0.51,0.41 -1.03,0.83 -1.54,1.25 -0.82,0.67 -1.64,1.35 -2.45,2.04l-0.05 0.05 -0.06 0.05 -0.04 0.03 -0.04 0.03 -0.04 0.04c-0.21,0.18 -0.42,0.35 -0.64,0.52 -18.61,15.33 -33.94,34.03 -45.32,54.86 -23,42.12 -29.94,93.03 -15.35,142.74 14.59,49.72 47.92,88.8 90.01,111.79 22.3,12.18 47.07,19.86 72.82,22.22 56.06,4.61 108.9,-13.42 149.33,-46.56 1.97,-1.61 3.9,-3.26 5.81,-4.94l20.7 50.93c-50.19,38.43 -114.32,58.86 -182.05,52.78z"/>
    </g>
    <g>
     <path class="fil1" d="M742.6 83.62l-40.28 0 0 235.46 40.28 0 0 -235.46zm55.88 47.09c14.56,0 25.41,-10.53 25.41,-25.4 0,-14.56 -10.84,-25.41 -25.41,-25.41 -14.56,0 -26.02,10.84 -26.02,25.41 0,14.87 11.15,25.4 26.02,25.4zm19.83 20.14l-40.59 0 0 168.23 40.59 0 0 -168.23zm120.95 -37.49c7.44,0 16.42,2.17 26.95,6.82l12.7 -31.6c-14.87,-7.75 -30.05,-11.46 -45.23,-11.46 -39.97,0 -66.92,23.55 -66.92,65.99l0 7.75 -26.65 0 0 34.08 26.65 0 0 134.15 40.28 0 0 -134.15 52.67 0 0 -34.08 -52.67 0 0 -6.81c0,-19.83 11.46,-30.68 32.22,-30.68z"/>
     <path class="fil1" d="M630.09 234.82c0,14.56 -4.65,26.65 -13.94,36.56 -9.29,9.91 -23.7,14.87 -38.27,14.87 -14.56,0 -26.42,-4.88 -35.63,-14.87 -9.07,-9.83 -13.63,-22 -13.63,-36.56 0,-14.25 4.57,-26.41 13.63,-36.25 9.21,-9.99 21.07,-14.87 35.63,-14.87 14.56,0 28.97,4.95 38.27,14.87 9.29,9.92 13.94,22 13.94,36.25l0 0zm-0.93 -68.34c-15.02,-12.96 -33.46,-19.65 -54.84,-19.65 -23.86,0 -46.63,8.37 -62.43,24.79 -15.8,16.42 -23.55,37.49 -23.55,62.58 0,25.1 7.75,46.48 23.55,63.51 15.8,17.04 38.26,25.41 62.43,25.41 22,0 38.32,-6.36 54.84,-19.56l0 15.53 38.42 0 0 -168.23 -38.42 0 0 15.62z"/>
    </g>
   </g>
   <path class="fil1" d="M1231.81 149.04c-26.02,0 -49.26,12.39 -60.42,30.98 -9.61,-19.52 -30.05,-30.98 -52.67,-30.98 -22,0 -39.97,11.15 -49.88,28.81l0 -24.48 -26.95 0 0 165.75 27.57 0 0 -92.94c0,-30.98 18.59,-51.43 45.54,-51.43 25.71,0 41.21,18.9 41.21,50.81l0 93.57 27.57 0 0 -93.57c0,-30.05 18.28,-50.81 45.24,-50.81 25.09,0 40.9,17.97 40.9,50.19l0 94.19 27.57 0 0 -98.21c0,-22 -5.89,-39.35 -17.66,-52.36 -11.78,-13.01 -27.88,-19.52 -48.02,-19.52zm93.37 87.06c0,24.48 8.05,45.24 24.48,61.97 16.42,16.73 37.18,25.09 62.27,25.09 25.1,0 45.85,-8.36 62.27,-25.09 16.42,-16.73 24.48,-37.49 24.48,-61.97 0,-24.17 -8.36,-44.61 -24.78,-61.34 -16.42,-17.04 -36.87,-25.4 -61.97,-25.4 -25.1,0 -45.85,8.36 -62.27,25.4 -16.42,16.73 -24.48,37.18 -24.48,61.34zm145.62 0c0,17.04 -5.58,31.6 -17.04,43.69 -11.46,12.08 -25.41,17.97 -41.83,17.97 -16.42,0 -30.36,-5.89 -41.83,-17.97 -11.46,-12.08 -17.04,-26.65 -17.04,-43.69 0,-16.73 5.58,-30.98 17.04,-43.07 11.46,-12.08 25.41,-18.28 41.83,-18.28 16.42,0 30.36,6.2 41.83,18.28 11.46,12.08 17.04,26.34 17.04,43.07zm142.66 -86.75c-24.48,0 -44.3,9.91 -59.48,29.43l0 -94.19 -27.57 0 0 234.53 27.57 0 0 -24.48c14.87,18.9 34.7,28.5 59.17,28.5 23.86,0 43.45,-8.29 59.18,-25.09 15.88,-16.96 23.85,-37.49 23.85,-61.65 0,-24.17 -8.06,-44.62 -23.85,-61.65 -15.8,-17.04 -35.32,-25.4 -58.87,-25.4zm-3.1 147.78c-17.35,0 -31.29,-5.89 -41.83,-17.66 -10.53,-11.77 -15.8,-26.34 -15.8,-43.38 0,-17.04 5.27,-31.29 15.8,-43.07 10.53,-11.77 24.48,-17.66 41.83,-17.66 17.04,0 30.82,6.03 41.52,17.66 10.68,11.61 16.11,26.02 16.11,43.07 0,17.04 -5.35,31.53 -16.11,43.38 -10.62,11.69 -24.48,17.66 -41.52,17.66zm129.93 -167.92c11.15,0 20.14,-8.98 20.14,-20.45 0,-11.46 -8.98,-20.14 -20.14,-20.14 -12.08,0 -20.76,8.68 -20.76,20.14 0,11.46 8.67,20.45 20.76,20.45zm13.32 24.17l-27.57 0 0 165.75 27.57 0 0 -165.75z"/>
  </g>
 </g>
</svg>
