<?xml version="1.0" encoding="UTF-8"?>
<!DOCTYPE svg PUBLIC "-//W3C//DTD SVG 1.1//EN" "http://www.w3.org/Graphics/SVG/1.1/DTD/svg11.dtd">
<!-- Creator: CorelDRAW 2019 (64-Bit) -->
<svg xmlns="http://www.w3.org/2000/svg" xml:space="preserve" width="54.5487mm" height="16.737mm" version="1.1" style="shape-rendering:geometricPrecision; text-rendering:geometricPrecision; image-rendering:optimizeQuality; fill-rule:evenodd; clip-rule:evenodd"
viewBox="0 0 1465.44 449.64"
 xmlns:xlink="http://www.w3.org/1999/xlink">
 <defs>
  <style type="text/css">
   <![CDATA[
    .fil1 {fill:black;fill-rule:nonzero}
    .fil0 {fill:#3899E2;fill-rule:nonzero}
   ]]>
  </style>
 </defs>
 <g id="Слой_x0020_1">
  <metadata id="CorelCorpID_0Corel-Layer"/>
  <g id="_1974947647184">
   <g>
    <polygon class="fil0" points="251.91,110.77 192.59,110.77 113.45,305.53 164.21,305.53 222.25,155.11 280.29,305.53 331.05,305.53 "/>
    <path class="fil0" d="M200.8 448.66l-0.41 -0.04 -0.03 -0 -0.03 -0.01 -0.03 -0 -0.03 -0c-29.83,-3 -58.52,-12.02 -84.41,-26.16 -49.97,-27.29 -89.52,-73.62 -106.81,-132.51 -17.28,-58.9 -9.05,-119.24 18.22,-169.18 14.04,-25.71 33.12,-48.66 56.36,-67.24l0.46 -0.38c0.02,-0.01 0.03,-0.03 0.05,-0.04 34.4,-28.2 76.52,-46.98 122.14,-52.89 0.23,-0.03 1.74,-0.18 1.97,-0.21l19.13 47.09c-0.28,0.02 -1.83,0.15 -2.11,0.17 -40.69,2.53 -78.44,17.82 -108.81,42.24 -0.48,0.38 -0.95,0.77 -1.43,1.16 -0.76,0.62 -1.52,1.25 -2.27,1.89l-0.05 0.04 -0.06 0.04 -0.04 0.03 -0.04 0.03 -0.04 0.03c-0.2,0.16 -0.39,0.33 -0.59,0.48 -17.23,14.2 -31.43,31.51 -41.97,50.8 -21.3,39.01 -27.73,86.15 -14.22,132.19 13.51,46.04 44.38,82.24 83.35,103.52 20.65,11.28 43.59,18.39 67.43,20.58 51.92,4.27 100.85,-12.42 138.29,-43.12 1.82,-1.49 3.62,-3.02 5.38,-4.58l19.17 47.16c-46.48,35.59 -105.87,54.5 -168.59,48.88z"/>
   </g>
   <g>
    <g>
     <path class="fil1" d="M687.69 77.44l-37.3 0 0 218.05 37.3 0 0 -218.05zm51.75 43.61c13.49,0 23.53,-9.75 23.53,-23.53 0,-13.49 -10.04,-23.53 -23.53,-23.53 -13.48,0 -24.1,10.04 -24.1,23.53 0,13.77 10.33,23.53 24.1,23.53zm18.36 18.65l-37.59 0 0 155.79 37.59 0 0 -155.79zm112 -34.72c6.89,0 15.21,2.01 24.96,6.31l11.76 -29.26c-13.77,-7.17 -27.83,-10.62 -41.89,-10.62 -37.01,0 -61.97,21.81 -61.97,61.11l0 7.17 -24.68 0 0 31.56 24.68 0 0 124.23 37.3 0 0 -124.23 48.78 0 0 -31.56 -48.78 0 0 -6.31c0,-18.36 10.62,-28.41 29.84,-28.41z"/>
     <path class="fil1" d="M583.5 217.45c0,13.48 -4.3,24.68 -12.91,33.86 -8.61,9.18 -21.95,13.77 -35.44,13.77 -13.49,0 -24.47,-4.52 -33,-13.77 -8.4,-9.11 -12.62,-20.37 -12.62,-33.86 0,-13.2 4.23,-24.46 12.62,-33.57 8.53,-9.25 19.51,-13.77 33,-13.77 13.49,0 26.83,4.59 35.44,13.77 8.61,9.18 12.91,20.37 12.91,33.57l0 0zm-0.86 -63.29c-13.91,-12 -30.99,-18.2 -50.78,-18.2 -22.09,0 -43.19,7.75 -57.82,22.95 -14.63,15.2 -21.81,34.71 -21.81,57.96 0,23.24 7.18,43.04 21.81,58.82 14.63,15.78 35.43,23.53 57.82,23.53 20.37,0 35.48,-5.89 50.78,-18.11l0 14.38 35.58 0 0 -155.79 -35.58 0 0 14.47z"/>
    </g>
    <path class="fil1" d="M1046.05 138.31c-22.95,0 -41.6,9.18 -55.66,27.26l0 -23.53 -25.54 0 0 216.62 25.54 0 0 -85.79c13.77,17.5 32.13,26.39 55.09,26.39 22.09,0 40.45,-7.75 55.09,-23.24 14.63,-15.78 22.09,-34.72 22.09,-57.1 0,-22.38 -7.46,-41.32 -22.09,-57.1 -14.63,-15.78 -32.71,-23.53 -54.51,-23.53zm-2.87 137.43c-16.36,0 -29.27,-5.45 -39.31,-16.36 -9.75,-11.19 -14.63,-24.67 -14.63,-40.74 0,-15.78 4.88,-29.26 14.63,-40.17 10.04,-11.19 22.95,-16.64 39.31,-16.64 16.07,0 28.98,5.45 39.02,16.64 10.04,10.9 14.92,24.39 14.92,40.17 0,16.07 -4.88,29.55 -14.92,40.74 -10.04,10.9 -22.95,16.36 -39.02,16.36zm229.06 -111.03c-14.06,-17.5 -32.42,-26.39 -54.8,-26.39 -22.09,0 -40.45,7.46 -55.09,22.67 -14.63,14.92 -21.8,33.86 -21.8,56.81 0,23.24 7.17,42.46 21.8,58.24 14.63,15.49 33,23.24 55.09,23.24 22.67,0 40.74,-8.61 54.8,-25.82l0 22.09 24.67 0 0 -153.5 -24.67 0 0 22.67zm2.01 53.94c0,16.07 -5.16,29.55 -15.21,40.74 -10.04,10.9 -22.95,16.36 -39.02,16.36 -16.07,0 -28.98,-5.45 -39.02,-16.36 -9.75,-11.19 -14.63,-24.67 -14.63,-40.45 0,-16.07 4.88,-29.55 14.63,-40.46 10.04,-11.19 22.95,-16.64 39.02,-16.64 16.07,0 28.98,5.45 39.02,16.64 10.04,10.9 15.21,24.39 15.21,40.17zm120.61 41.03l-48.78 -117.63 -29.55 0 66.56 152.64 -6.02 14.92c-7.46,18.07 -17.5,27.26 -30.41,27.26 -5.16,0 -11.48,-1.43 -18.65,-4.59l-2.87 22.67c6.03,3.73 13.77,5.74 23.81,5.74 22.95,0 39.02,-12.91 51.64,-46.48l64.84 -172.15 -28.4 0 -42.18 117.63z"/>
   </g>
  </g>
 </g>
</svg>
