<?xml version="1.0" encoding="UTF-8"?>
<!DOCTYPE svg PUBLIC "-//W3C//DTD SVG 1.1//EN" "http://www.w3.org/Graphics/SVG/1.1/DTD/svg11.dtd">
<!-- Creator: CorelDRAW 2019 (64-Bit) -->
<svg xmlns="http://www.w3.org/2000/svg" xml:space="preserve" width="80.5687mm" height="16.737mm" version="1.1" style="shape-rendering:geometricPrecision; text-rendering:geometricPrecision; image-rendering:optimizeQuality; fill-rule:evenodd; clip-rule:evenodd"
viewBox="0 0 2833.78 588.68"
 xmlns:xlink="http://www.w3.org/1999/xlink">
 <defs>
  <style type="text/css">
   <![CDATA[
    .fil3 {fill:black}
    .fil1 {fill:#C92225}
    .fil2 {fill:black;fill-rule:nonzero}
    .fil0 {fill:#C92225;fill-rule:nonzero}
   ]]>
  </style>
 </defs>
 <g id="Слой_x0020_1">
  <metadata id="CorelCorpID_0Corel-Layer"/>
  <g id="_1975069712992">
   <g>
    <polygon class="fil0" points="329.81,145.03 252.14,145.03 148.53,400.01 214.99,400.01 290.98,203.08 366.96,400.01 433.42,400.01 "/>
    <path class="fil1" d="M262.89 587.39l-0.53 -0.05 -0.04 -0 -0.04 -0 -0.04 -0.01 -0.04 -0c-39.06,-3.93 -76.61,-15.74 -110.51,-34.25 -65.42,-35.74 -117.21,-96.39 -139.83,-173.48 -22.63,-77.11 -11.86,-156.11 23.86,-221.49 18.38,-33.66 43.36,-63.71 73.79,-88.04l0.6 -0.5c0.02,-0.02 0.05,-0.04 0.07,-0.06 45.04,-36.92 100.18,-61.51 159.91,-69.24 0.3,-0.04 2.27,-0.23 2.58,-0.27l25.05 61.65c-0.37,0.02 -2.4,0.2 -2.77,0.22 -53.27,3.31 -102.7,23.33 -142.46,55.3 -0.62,0.5 -1.25,1.01 -1.87,1.52 -1,0.82 -1.99,1.64 -2.97,2.47l-0.06 0.06 -0.07 0.06 -0.05 0.04 -0.05 0.04 -0.05 0.05c-0.26,0.21 -0.52,0.43 -0.78,0.63 -22.56,18.59 -41.14,41.25 -54.95,66.51 -27.89,51.07 -36.3,112.79 -18.61,173.07 17.69,60.28 58.1,107.67 109.13,135.54 27.04,14.77 57.07,24.08 88.29,26.94 67.97,5.59 132.04,-16.27 181.05,-56.45 2.38,-1.96 4.73,-3.95 7.05,-5.99l25.09 61.75c-60.86,46.6 -138.61,71.36 -220.72,64z"/>
   </g>
   <g>
    <path class="fil2" d="M763.93 284.7c0,17.65 -5.63,32.31 -16.9,44.32 -11.27,12.02 -28.74,18.03 -46.39,18.03 -17.66,0 -32.03,-5.92 -43.2,-18.03 -10.99,-11.92 -16.53,-26.67 -16.53,-44.32 0,-17.28 5.53,-32.02 16.53,-43.95 11.17,-12.11 25.54,-18.03 43.2,-18.03 17.66,0 35.12,6.01 46.39,18.03 11.27,12.02 16.9,26.67 16.9,43.95l0 0zm-1.13 -82.86c-18.21,-15.71 -40.57,-23.82 -66.49,-23.82 -28.93,0 -56.54,10.15 -75.69,30.05 -19.15,19.9 -28.55,45.45 -28.55,75.88 0,30.43 9.39,56.35 28.55,77.01 19.15,20.66 46.39,30.8 75.69,30.8 26.67,0 46.46,-7.71 66.49,-23.72l0 18.83 46.58 0 0 -203.97 -46.58 0 0 18.94z"/>
    <path class="fil3" d="M853.1 389.88c24.42,0 43.2,-10.14 56.35,-30.43 4.88,-7.89 9.77,-19.53 12.77,-27.42 3.38,-8.64 6.76,-25.54 8.26,-33.05 1.13,-3.76 2.25,-9.76 3.38,-18.41l2.25 -17.28c0.37,-3.01 1.5,-9.39 2.63,-19.16l2.25 -17.65 45.45 0 0 160.4 48.83 0 0 -203.97 -136.73 0 -1.5 15.03c-4.13,39.07 -8.27,69.12 -12.02,90.53 -3.76,21.03 -9.39,37.19 -17.28,48.08 -7.51,10.14 -17.65,15.4 -30.05,15.4l2.63 36.43c5.63,1.13 9.77,1.51 12.77,1.51z"/>
    <path class="fil2" d="M1472.54 220.46c46.95,0.38 74.38,24.79 74.38,64.24 0,40.19 -28.17,64.61 -74.38,64.98l0 -129.22zm-120.58 64.24c0,-39.44 27.42,-63.86 74.38,-64.24l0 129.22c-46.2,-1.13 -74.38,-24.79 -74.38,-64.98zm242.28 0.37c0,-32.3 -11.27,-57.84 -33.43,-77 -22.16,-19.16 -51.84,-29.3 -88.28,-30.43l0 -54.84 -46.2 0 0 54.84c-36.81,1.13 -66.49,11.27 -88.65,30.43 -22.16,19.16 -33.05,44.7 -33.05,76.63 0,31.93 10.89,57.47 33.05,76.25 22.16,18.78 51.46,28.93 88.65,30.43l0 54.84 46.2 0 0 -54.84c37.19,-1.13 66.49,-11.27 88.65,-30.05 22.16,-18.78 33.06,-44.32 33.06,-76.26z"/>
    <polygon class="fil2" points="1108.59,386.87 1223.16,259.53 1223.16,386.87 1270.49,386.87 1270.49,182.9 1239.69,182.9 1125.12,311.74 1125.12,182.9 1077.41,182.9 1077.41,386.87 "/>
   </g>
   <path class="fil2" d="M2144.96 388.76c21.41,0 37.73,-9.16 49.59,-27.42 6.92,-10.66 13.25,-27.4 17.28,-40.94 1.22,-4.1 2.31,-9.83 3.76,-16.9l3.38 -16.53c0.77,-3.75 1.55,-9.76 2.63,-18.03l2.25 -17.28 2.25 -19.16 2.25 -17.65 57.85 0 0 172.04 33.43 0 0 -200.96 -120.2 0 -2.63 21.41 -2.25 22.16 -2.63 21.03c-1.17,9.37 -2.13,16.49 -3,21.41l-3.38 19.16c-2.71,15.37 -5.11,23.21 -9.01,34.93 -3.6,10.82 -7.6,19.1 -12.39,25.17 -6.46,8.19 -15.44,12.95 -26.67,12.4l-8.09 -0.4 1.71 23.69c4.88,1.13 9.76,1.88 13.9,1.88zm-357.75 2.62c39.07,0 75.12,-21.04 91.65,-51.46l-27.8 -16.15c-5.63,10.52 -14.65,19.16 -26.67,26.29 -12.02,7.14 -24.42,10.52 -37.19,10.52 -20.66,0 -37.94,-7.14 -51.84,-21.04 -13.52,-14.27 -20.28,-31.93 -20.28,-52.96 0,-21.41 7.14,-39.07 21.04,-53.34 13.9,-14.28 31.55,-21.41 52.97,-21.41 25.92,0 49.21,14.65 63.11,37.56l27.8 -16.15c-15.4,-31.55 -51.46,-52.21 -90.9,-52.21 -31.55,0 -57.48,9.76 -77.76,29.67 -19.91,19.91 -30.05,45.07 -30.05,75.88 0,30.43 9.76,55.59 29.67,75.5 19.91,19.53 45.07,29.3 76.25,29.3zm282.99 -175.8c-18.41,-22.91 -42.45,-34.56 -71.75,-34.56 -28.92,0 -52.96,9.76 -72.12,29.67 -19.16,19.53 -28.55,44.32 -28.55,74.38 0,30.42 9.39,55.59 28.55,76.25 19.16,20.28 43.2,30.42 72.12,30.42 29.67,0 53.34,-11.27 71.75,-33.8l0 28.92 32.3 0 0 -200.96 -32.3 0 0 29.67zm2.63 70.62c0,21.04 -6.76,38.69 -19.91,53.34 -13.15,14.28 -30.05,21.41 -51.08,21.41 -21.04,0 -37.94,-7.14 -51.09,-21.41 -12.77,-14.65 -19.16,-32.3 -19.16,-52.96 0,-21.04 6.39,-38.69 19.16,-52.97 13.15,-14.65 30.05,-21.79 51.09,-21.79 21.03,0 37.94,7.14 51.08,21.79 13.15,14.28 19.91,31.93 19.91,52.59zm283 0c0,29.67 9.77,54.85 29.67,75.13 19.9,20.28 45.07,30.42 75.5,30.42 30.43,0 55.6,-10.15 75.5,-30.42 19.9,-20.28 29.67,-45.45 29.67,-75.13 0,-29.3 -10.24,-54.01 -30.05,-74.38 -20,-20.57 -44.7,-30.8 -75.13,-30.8 -30.43,0 -55.5,10.24 -75.5,30.8 -19.81,20.37 -29.67,45.08 -29.67,74.38zm176.55 0c0,20.66 -6.77,38.32 -20.66,52.97 -13.89,14.65 -30.8,21.79 -50.71,21.79 -19.91,0 -36.82,-7.14 -50.71,-21.79 -13.89,-14.64 -20.66,-32.31 -20.66,-52.97 0,-20.28 6.77,-37.57 20.66,-52.21 13.89,-14.65 30.8,-22.16 50.71,-22.16 19.91,0 36.82,7.52 50.71,22.16 13.89,14.64 20.66,31.93 20.66,52.21zm103.07 100.67l0 -132.97 78.13 102.92 9.01 0 78.13 -102.92 0 132.97 33.05 0 0 -200.96 -19.15 0 -96.16 128.09 -97.29 -128.09 -18.78 0 0 200.96 33.05 0z"/>
  </g>
 </g>
</svg>
