<?xml version="1.0" encoding="UTF-8"?>
<!DOCTYPE svg PUBLIC "-//W3C//DTD SVG 1.1//EN" "http://www.w3.org/Graphics/SVG/1.1/DTD/svg11.dtd">
<!-- Creator: CorelDRAW 2019 (64-Bit) -->
<svg xmlns="http://www.w3.org/2000/svg" xml:space="preserve" width="59.0361mm" height="16.737mm" version="1.1" style="shape-rendering:geometricPrecision; text-rendering:geometricPrecision; image-rendering:optimizeQuality; fill-rule:evenodd; clip-rule:evenodd"
viewBox="0 0 985.9 279.51"
 xmlns:xlink="http://www.w3.org/1999/xlink">
 <defs>
  <style type="text/css">
   <![CDATA[
    .fil1 {fill:black;fill-rule:nonzero}
    .fil0 {fill:#FFB500;fill-rule:nonzero}
   ]]>
  </style>
 </defs>
 <g id="Слой_x0020_1">
  <metadata id="CorelCorpID_0Corel-Layer"/>
  <g id="_1974948438224">
   <polygon class="fil0" points="156.6,68.86 119.72,68.86 70.52,189.93 102.08,189.93 138.16,96.42 174.23,189.93 205.79,189.93 "/>
   <path class="fil0" d="M124.82 278.9l-0.25 -0.03 -0.02 -0 -0.02 -0 -0.02 -0 -0.02 -0c-18.54,-1.86 -36.38,-7.47 -52.47,-16.26 -31.06,-16.97 -55.65,-45.77 -66.39,-82.37 -10.74,-36.61 -5.63,-74.12 11.33,-105.16 8.73,-15.98 20.59,-30.25 35.03,-41.8l0.28 -0.24c0.01,-0.01 0.02,-0.02 0.03,-0.03 21.38,-17.53 47.57,-29.21 75.92,-32.88 0.14,-0.02 1.08,-0.11 1.23,-0.13l11.89 29.27c-0.18,0.01 -1.14,0.09 -1.31,0.11 -25.29,1.57 -48.76,11.08 -67.64,26.26 -0.3,0.24 -0.59,0.48 -0.89,0.72 -0.47,0.39 -0.94,0.78 -1.41,1.17l-0.03 0.03 -0.04 0.03 -0.02 0.02 -0.02 0.02 -0.03 0.02c-0.12,0.1 -0.24,0.2 -0.37,0.3 -10.71,8.83 -19.54,19.59 -26.09,31.58 -13.24,24.25 -17.24,53.56 -8.84,82.17 8.4,28.62 27.59,51.12 51.81,64.35 12.84,7.01 27.1,11.43 41.92,12.79 32.27,2.65 62.69,-7.72 85.96,-26.8 1.13,-0.93 2.25,-1.88 3.34,-2.85l11.91 29.32c-28.89,22.12 -65.81,33.88 -104.8,30.39z"/>
  </g>
  <g id="_1974948431696">
   <path class="fil1" d="M427.49 48.14l-23.19 0 0 135.55 23.19 0 0 -135.55zm32.17 27.11c8.38,0 14.63,-6.06 14.63,-14.62 0,-8.38 -6.24,-14.63 -14.63,-14.63 -8.38,0 -14.98,6.24 -14.98,14.63 0,8.56 6.42,14.62 14.98,14.62zm11.42 11.59l-23.36 0 0 96.85 23.36 0 0 -96.85zm69.63 -21.58c4.28,0 9.45,1.25 15.52,3.92l7.31 -18.19c-8.56,-4.46 -17.3,-6.6 -26.04,-6.6 -23.01,0 -38.53,13.56 -38.53,37.99l0 4.46 -15.34 0 0 19.62 15.34 0 0 77.23 23.19 0 0 -77.23 30.32 0 0 -19.62 -30.32 0 0 -3.92c0,-11.41 6.6,-17.66 18.55,-17.66z"/>
   <path class="fil1" d="M362.72 135.18c0,8.38 -2.68,15.34 -8.02,21.05 -5.35,5.71 -13.65,8.56 -22.03,8.56 -8.38,0 -15.21,-2.81 -20.51,-8.56 -5.22,-5.66 -7.85,-12.66 -7.85,-21.05 0,-8.2 2.63,-15.21 7.85,-20.87 5.3,-5.75 12.13,-8.56 20.51,-8.56 8.38,0 16.68,2.85 22.03,8.56 5.35,5.71 8.02,12.66 8.02,20.87l0 0zm-0.53 -39.34c-8.65,-7.46 -19.26,-11.31 -31.57,-11.31 -13.73,0 -26.85,4.82 -35.94,14.27 -9.09,9.45 -13.56,21.58 -13.56,36.03 0,14.45 4.46,26.75 13.56,36.56 9.09,9.81 22.03,14.63 35.94,14.63 12.66,0 22.06,-3.66 31.57,-11.26l0 8.94 22.12 0 0 -96.85 -22.12 0 0 8.99z"/>
  </g>
  <path class="fil1" d="M625.64 185.85c9.81,0 18.01,-2.85 24.26,-8.38 6.24,-5.53 9.45,-12.31 9.45,-20.33 0,-10.34 -5.35,-18.37 -16.23,-24.08 -2.68,-1.43 -6.96,-3.39 -12.48,-5.71l-10.88 -4.99c-5.17,-2.5 -7.85,-6.42 -7.85,-11.59 0,-6.6 4.99,-12.13 14.09,-12.13 8.56,0 15.34,3.75 20.15,11.24l10.7 -9.45c-5.71,-9.99 -17.66,-15.34 -29.78,-15.34 -9.1,0 -16.59,2.5 -22.12,7.49 -5.53,4.99 -8.2,11.24 -8.2,18.91 0,9.99 4.82,17.66 14.27,22.83 2.14,1.25 6.06,3.03 11.95,5.53 5.89,2.5 9.63,4.28 11.59,5.35 6.06,3.39 9.1,7.67 9.1,12.84 0,7.31 -6.96,13.73 -17.48,13.73 -8.74,0 -17.66,-5.17 -23.19,-15.34l-12.13 8.38c7.13,14.09 20.51,21.05 34.78,21.05zm65.79 -2.14l0 -53.33c0,-8.74 2.45,-15.92 7.31,-21.4 4.94,-5.57 11.41,-8.38 19.44,-8.38 14.8,0 24.79,10.52 24.79,29.78l0 53.33 15.87 0 0 -57.79c0,-13.02 -3.57,-22.83 -10.88,-29.78 -7.31,-6.96 -16.23,-10.34 -26.75,-10.34 -13.02,0 -24.43,5.53 -30.32,14.27l0 -51.37 -15.34 0 0 135.01 15.87 0zm81.96 -47.8c0,14.09 4.64,26.04 14.09,35.67 9.45,9.63 21.4,14.45 35.85,14.45 14.45,0 26.4,-4.82 35.85,-14.45 9.45,-9.63 14.09,-21.58 14.09,-35.67 0,-13.91 -4.86,-25.64 -14.27,-35.31 -9.49,-9.76 -21.22,-14.62 -35.67,-14.62 -14.45,0 -26.35,4.86 -35.85,14.62 -9.41,9.67 -14.09,21.4 -14.09,35.31zm83.83 0c0,9.81 -3.21,18.2 -9.81,25.15 -6.59,6.95 -14.63,10.34 -24.08,10.34 -9.45,0 -17.48,-3.39 -24.08,-10.34 -6.59,-6.95 -9.81,-15.34 -9.81,-25.15 0,-9.63 3.21,-17.84 9.81,-24.79 6.59,-6.95 14.63,-10.52 24.08,-10.52 9.45,0 17.48,3.57 24.08,10.52 6.59,6.95 9.81,15.16 9.81,24.79zm81.06 -49.94c-14.27,0 -25.86,5.71 -34.6,16.94l0 -14.63 -15.87 0 0 134.66 15.87 0 0 -53.33c8.56,10.88 19.97,16.41 34.24,16.41 13.73,0 25.2,-4.78 34.24,-14.45 9.13,-9.76 13.73,-21.58 13.73,-35.49 0,-13.91 -4.64,-25.68 -13.73,-35.49 -9.1,-9.81 -20.33,-14.62 -33.89,-14.62zm-1.78 85.43c-10.17,0 -18.29,-3.31 -24.44,-10.17 -6.15,-6.87 -9.1,-15.34 -9.1,-25.33 0,-9.81 3.03,-18.2 9.1,-24.97 6.23,-6.95 14.27,-10.34 24.44,-10.34 9.99,0 17.97,3.43 24.25,10.34 6.19,6.81 9.28,15.16 9.28,24.97 0,9.99 -2.99,18.42 -9.28,25.33 -6.19,6.81 -14.27,10.17 -24.25,10.17z"/>
 </g>
</svg>
