<svg width="36" height="36" viewBox="0 0 36 36" fill="none" xmlns="http://www.w3.org/2000/svg">
<path d="M29.7692 12H15.2308C13.4465 12 12 13.4465 12 15.2308V29.7692C12 31.5535 13.4465 33 15.2308 33H29.7692C31.5535 33 33 31.5535 33 29.7692V15.2308C33 13.4465 31.5535 12 29.7692 12Z" stroke="#F4FBF9" stroke-width="2" stroke-linecap="round" stroke-linejoin="round"/>
<path d="M7.5 22.5H6C5.20435 22.5 4.44129 22.1839 3.87868 21.6213C3.31607 21.0587 3 20.2956 3 19.5V6C3 5.20435 3.31607 4.44129 3.87868 3.87868C4.44129 3.31607 5.20435 3 6 3H19.5C20.2956 3 21.0587 3.31607 21.6213 3.87868C22.1839 4.44129 22.5 5.20435 22.5 6V7.5" stroke="#F4FBF9" stroke-width="2" stroke-linecap="round" stroke-linejoin="round"/>
</svg>
